{
  "accessors": [
    {
      "bufferView": 2,
      "componentType": 5126,
      "count": 820,
      "max": [
        4.745060443878174,
        12.863780975341797,
        1.091301441192627
      ],
      "min": [
        -4.745060443878174,
        1.3385720252990723,
        -1.3865418434143066
      ],
      "type": "VEC3"
    },
    {
      "bufferView": 2,
      "byteOffset": 9840,
      "componentType": 5126,
      "count": 820,
      "max": [
        1.0,
        0.9342936277389526,
        0.9889865517616272
      ],
      "min": [
        -1.0,
        -0.988117516040802,
        -0.998233437538147
      ],
      "type": "VEC3"
    },
    {
      "bufferView": 1,
      "componentType": 5126,
      "count": 820,
      "max": [
        0.9261000156402588,
        0.9496399760246277
      ],
      "min": [
        0.09809999912977219,
        0.12539026141166687
      ],
      "type": "VEC2"
    },
    {
      "bufferView": 0,
      "componentType": 5125,
      "count": 1422,
      "type": "SCALAR"
    },
    {
      "bufferView": 2,
      "byteOffset": 19680,
      "componentType": 5126,
      "count": 2322,
      "max": [
        5.292701721191406,
        15.185270309448242,
        1.03584885597229
      ],
      "min": [
        -5.292701721191406,
        -0.061791256070137024,
        -1.292197585105896
      ],
      "type": "VEC3"
    },
    {
      "bufferView": 2,
      "byteOffset": 47544,
      "componentType": 5126,
      "count": 2322,
      "max": [
        0.9978073239326477,
        0.9975079298019409,
        0.9988992810249329
      ],
      "min": [
        -0.9978074431419373,
        -0.9999242424964905,
        -0.9983876943588257
      ],
      "type": "VEC3"
    },
    {
      "bufferView": 1,
      "byteOffset": 6560,
      "componentType": 5126,
      "count": 2322,
      "max": [
        1.0000001192092896,
        1.0
      ],
      "min": [
        0.0,
        0.0
      ],
      "type": "VEC2"
    },
    {
      "bufferView": 0,
      "byteOffset": 5688,
      "componentType": 5125,
      "count": 3540,
      "type": "SCALAR"
    },
    {
      "bufferView": 2,
      "byteOffset": 75408,
      "componentType": 5126,
      "count": 208,
      "max": [
        1.1799209117889404,
        9.145207405090332,
        0.9911981821060181
      ],
      "min": [
        -1.1799209117889404,
        7.65787935256958,
        -1.465736746788025
      ],
      "type": "VEC3"
    },
    {
      "bufferView": 2,
      "byteOffset": 77904,
      "componentType": 5126,
      "count": 208,
      "max": [
        0.9795759320259094,
        0.999990701675415,
        0.9974146485328674
      ],
      "min": [
        -0.9795759320259094,
        -1.0,
        -0.9974145293235779
      ],
      "type": "VEC3"
    },
    {
      "bufferView": 1,
      "byteOffset": 25136,
      "componentType": 5126,
      "count": 208,
      "max": [
        1.0000001192092896,
        1.0
      ],
      "min": [
        0.0,
        0.0
      ],
      "type": "VEC2"
    },
    {
      "bufferView": 0,
      "byteOffset": 19848,
      "componentType": 5125,
      "count": 366,
      "type": "SCALAR"
    },
    {
      "bufferView": 2,
      "byteOffset": 80400,
      "componentType": 5126,
      "count": 672,
      "max": [
        5.5300068855285645,
        14.283727645874023,
        1.1905112266540527
      ],
      "min": [
        -5.5300068855285645,
        8.42183780670166,
        0.005563553422689438
      ],
      "type": "VEC3"
    },
    {
      "bufferView": 2,
      "byteOffset": 88464,
      "componentType": 5126,
      "count": 672,
      "max": [
        0.9857885837554932,
        0.7586426734924316,
        0.9998787641525269
      ],
      "min": [
        -0.9857885241508484,
        -0.9789666533470154,
        -0.9994152188301086
      ],
      "type": "VEC3"
    },
    {
      "bufferView": 1,
      "byteOffset": 26800,
      "componentType": 5126,
      "count": 672,
      "max": [
        0.98580002784729,
        0.25540000200271606
      ],
      "min": [
        0.259799987077713,
        0.010300000198185444
      ],
      "type": "VEC2"
    },
    {
      "bufferView": 0,
      "byteOffset": 21312,
      "componentType": 5125,
      "count": 1008,
      "type": "SCALAR"
    },
    {
      "bufferView": 2,
      "byteOffset": 96528,
      "componentType": 5126,
      "count": 102,
      "max": [
        1.2228628396987915,
        10.274699211120605,
        0.9951292276382446
      ],
      "min": [
        -1.2228628396987915,
        9.2838134765625,
        -0.9330649971961975
      ],
      "type": "VEC3"
    },
    {
      "bufferView": 2,
      "byteOffset": 97752,
      "componentType": 5126,
      "count": 102,
      "max": [
        0.9335852265357971,
        0.9999721646308899,
        0.9919640421867371
      ],
      "min": [
        -0.9335852861404419,
        -0.9997220039367676,
        -0.9853208661079407
      ],
      "type": "VEC3"
    },
    {
      "bufferView": 1,
      "byteOffset": 32176,
      "componentType": 5126,
      "count": 102,
      "max": [
        0.6467999815940857,
        0.6833999752998352
      ],
      "min": [
        0.3337000012397766,
        0.5936999917030334
      ],
      "type": "VEC2"
    },
    {
      "bufferView": 0,
      "byteOffset": 25344,
      "componentType": 5125,
      "count": 234,
      "type": "SCALAR"
    },
    {
      "bufferView": 2,
      "byteOffset": 98976,
      "componentType": 5126,
      "count": 652,
      "max": [
        4.896492004394531,
        13.85818099975586,
        0.9085116982460022
      ],
      "min": [
        -4.896492004394531,
        0.6898186802864075,
        -1.0383051633834839
      ],
      "type": "VEC3"
    },
    {
      "bufferView": 2,
      "byteOffset": 106800,
      "componentType": 5126,
      "count": 652,
      "max": [
        0.9759550094604492,
        0.9125156402587891,
        0.9487960934638977
      ],
      "min": [
        -0.9759550094604492,
        -0.9852352738380432,
        -0.9703342914581299
      ],
      "type": "VEC3"
    },
    {
      "bufferView": 1,
      "byteOffset": 32992,
      "componentType": 5126,
      "count": 652,
      "max": [
        0.9266473650932312,
        0.7581999897956848
      ],
      "min": [
        0.09809999912977219,
        0.10840000212192535
      ],
      "type": "VEC2"
    },
    {
      "bufferView": 0,
      "byteOffset": 26280,
      "componentType": 5125,
      "count": 1008,
      "type": "SCALAR"
    }
  ],
  "asset": {
    "extras": {
      "author": "Daniel Darko (https://sketchfab.com/danieldarko)",
      "license": "CC-BY-4.0 (http://creativecommons.org/licenses/by/4.0/)",
      "source": "https://sketchfab.com/3d-models/low-poly-ninja-54783c019894430bb163e02fff915fe9",
      "title": "Low-poly Ninja"
    },
    "generator": "Sketchfab-12.67.0",
    "version": "2.0"
  },
  "bufferViews": [
    {
      "buffer": 0,
      "byteLength": 30312,
      "name": "floatBufferViews",
      "target": 34963
    },
    {
      "buffer": 0,
      "byteLength": 38208,
      "byteOffset": 30312,
      "byteStride": 8,
      "name": "floatBufferViews",
      "target": 34962
    },
    {
      "buffer": 0,
      "byteLength": 114624,
      "byteOffset": 68520,
      "byteStride": 12,
      "name": "floatBufferViews",
      "target": 34962
    }
  ],
  "buffers": [
    {
      "byteLength": 183144,
      "uri": "scene.bin"
    }
  ],
  "extensionsUsed": [
    "KHR_materials_unlit"
  ],
  "materials": [
    {
      "doubleSided": true,
      "extensions": {
        "KHR_materials_unlit": {}
      },
      "name": "Leather",
      "pbrMetallicRoughness": {
        "baseColorFactor": [
          0.3113642400293012,
          0.3113642400293012,
          0.3113642400293012,
          1.0
        ],
        "metallicFactor": 0.0
      }
    },
    {
      "doubleSided": true,
      "extensions": {
        "KHR_materials_unlit": {}
      },
      "name": "Main",
      "pbrMetallicRoughness": {
        "baseColorFactor": [
          0.027855617666232967,
          0.027855617666232967,
          0.027855617666232967,
          1.0
        ],
        "metallicFactor": 0.0
      }
    },
    {
      "doubleSided": true,
      "extensions": {
        "KHR_materials_unlit": {}
      },
      "name": "Accessory",
      "pbrMetallicRoughness": {
        "baseColorFactor": [
          0.734,
          0.0,
          0.0,
          1.0
        ],
        "metallicFactor": 0.0
      }
    },
    {
      "doubleSided": true,
      "extensions": {
        "KHR_materials_unlit": {}
      },
      "name": "Skin",
      "pbrMetallicRoughness": {
        "baseColorFactor": [
          0.9041773379690979,
          0.6111898427228655,
          0.350321570284896,
          1.0
        ],
        "metallicFactor": 0.0
      }
    },
    {
      "doubleSided": true,
      "extensions": {
        "KHR_materials_unlit": {}
      },
      "name": "Armour",
      "pbrMetallicRoughness": {
        "baseColorFactor": [
          0.855422,
          0.855422,
          0.855422,
          1.0
        ],
        "metallicFactor": 0.0
      }
    },
    {
      "doubleSided": true,
      "extensions": {
        "KHR_materials_unlit": {}
      },
      "name": "Secondary",
      "pbrMetallicRoughness": {
        "baseColorFactor": [
          0.16181105008555702,
          0.16181105008555702,
          0.16181105008555702,
          1.0
        ],
        "metallicFactor": 0.0
      }
    }
  ],
  "meshes": [
    {
      "name": "NInja_Leather_0",
      "primitives": [
        {
          "attributes": {
            "NORMAL": 1,
            "POSITION": 0,
            "TEXCOORD_0": 2
          },
          "indices": 3,
          "material": 0,
          "mode": 4
        }
      ]
    },
    {
      "name": "NInja_Main_0",
      "primitives": [
        {
          "attributes": {
            "NORMAL": 5,
            "POSITION": 4,
            "TEXCOORD_0": 6
          },
          "indices": 7,
          "material": 1,
          "mode": 4
        }
      ]
    },
    {
      "name": "NInja_Accessory_0",
      "primitives": [
        {
          "attributes": {
            "NORMAL": 9,
            "POSITION": 8,
            "TEXCOORD_0": 10
          },
          "indices": 11,
          "material": 2,
          "mode": 4
        }
      ]
    },
    {
      "name": "NInja_Skin_0",
      "primitives": [
        {
          "attributes": {
            "NORMAL": 13,
            "POSITION": 12,
            "TEXCOORD_0": 14
          },
          "indices": 15,
          "material": 3,
          "mode": 4
        }
      ]
    },
    {
      "name": "NInja_Armour_0",
      "primitives": [
        {
          "attributes": {
            "NORMAL": 17,
            "POSITION": 16,
            "TEXCOORD_0": 18
          },
          "indices": 19,
          "material": 4,
          "mode": 4
        }
      ]
    },
    {
      "name": "NInja_Secondary_0",
      "primitives": [
        {
          "attributes": {
            "NORMAL": 21,
            "POSITION": 20,
            "TEXCOORD_0": 22
          },
          "indices": 23,
          "material": 5,
          "mode": 4
        }
      ]
    }
  ],
  "nodes": [
    {
      "children": [
        1
      ],
      "matrix": [
        1.0,
        0.0,
        0.0,
        0.0,
        0.0,
        2.220446049250313e-16,
        -1.0,
        0.0,
        0.0,
        1.0,
        2.220446049250313e-16,
        0.0,
        0.0,
        0.0,
        0.0,
        1.0
      ],
      "name": "Sketchfab_model"
    },
    {
      "children": [
        2
      ],
      "matrix": [
        1.0,
        0.0,
        0.0,
        0.0,
        0.0,
        0.0,
        1.0,
        0.0,
        0.0,
        -1.0,
        0.0,
        0.0,
        0.0,
        0.0,
        0.0,
        1.0
      ],
      "name": "72d0af7a0d704e1abfdcb132458a70c9.fbx"
    },
    {
      "children": [
        3
      ],
      "name": "RootNode"
    },
    {
      "children": [
        4,
        5,
        6,
        7,
        8,
        9
      ],
      "name": "NInja"
    },
    {
      "mesh": 0,
      "name": "NInja_Leather_0"
    },
    {
      "mesh": 1,
      "name": "NInja_Main_0"
    },
    {
      "mesh": 2,
      "name": "NInja_Accessory_0"
    },
    {
      "mesh": 3,
      "name": "NInja_Skin_0"
    },
    {
      "mesh": 4,
      "name": "NInja_Armour_0"
    },
    {
      "mesh": 5,
      "name": "NInja_Secondary_0"
    }
  ],
  "scene": 0,
  "scenes": [
    {
      "name": "Sketchfab_Scene",
      "nodes": [
        0
      ]
    }
  ]
}
